Coordinates
version=1
nRows=49
nColumns=12
inDegrees=yes

Units are S.I. units (second, meters, Newtons, ...)
Angles are in degrees

endheader
time	SC_y	SC_z	SC_x	AC_y	AC_z	AC_x	GH_y	GH_z	GH_yy	EL_x	PS_y
       0.0              -17.48          11.84          82.69           36.6         -8.805          -13.7          161.5          31.66         -164.2          70.05          57.54
    0.0136              -17.48          11.84          82.68           36.6         -8.805          -13.7          161.4          31.66         -164.2          70.04          57.53
   0.02719              -17.49          11.84          82.67          36.61         -8.806         -13.69          161.4          31.65         -164.1          70.03          57.53
   0.04079               -17.5          11.85          82.66          36.61         -8.806         -13.69          161.3          31.65         -164.1          70.02          57.53
   0.05438               -17.5          11.85          82.64          36.61         -8.807         -13.69          161.3          31.64         -164.0          70.01          57.53
   0.06798              -17.51          11.85          82.63          36.61         -8.808         -13.68          161.2          31.64         -164.0           70.0          57.53
   0.08157              -17.52          11.86          82.62          36.61         -8.809         -13.68          161.1          31.64         -163.9          69.98          57.53
   0.09517              -17.53          11.86           82.6          36.62          -8.81         -13.67          161.1          31.63         -163.8          69.97          57.53
    0.1088              -17.54          11.86          82.59          36.62         -8.811         -13.67          161.0          31.63         -163.7          69.96          57.53
    0.1224              -17.55          11.87          82.57          36.62         -8.812         -13.66          160.9          31.62         -163.7          69.94          57.52
     0.136              -17.56          11.87          82.55          36.62         -8.813         -13.66          160.9          31.61         -163.6          69.92          57.52
    0.1495              -17.57          11.87          82.53          36.63         -8.814         -13.65          160.8          31.61         -163.5          69.91          57.52
    0.1631              -17.58          11.88          82.51          36.63         -8.815         -13.65          160.7           31.6         -163.4          69.89          57.52
    0.1767              -17.59          11.88          82.49          36.63         -8.816         -13.64          160.6          31.59         -163.3          69.87          57.52
    0.1903              -17.61          11.89          82.47          36.64         -8.818         -13.63          160.5          31.58         -163.1          69.84          57.51
    0.2039              -17.62          11.89          82.44          36.64         -8.819         -13.63          160.3          31.57         -163.0          69.82          57.51
    0.2175              -17.64           11.9          82.41          36.65         -8.821         -13.62          160.2          31.56         -162.9          69.79          57.51
    0.2311              -17.66          11.91          82.38          36.65         -8.823         -13.61          160.1          31.55         -162.7          69.76          57.51
    0.2447              -17.68          11.92          82.34          36.66         -8.825          -13.6          159.9          31.54         -162.5          69.73           57.5
    0.2583               -17.7          11.92          82.31          36.66         -8.827         -13.59          159.7          31.53         -162.3           69.7           57.5
    0.2719              -17.72          11.93          82.27          36.67         -8.829         -13.58          159.6          31.51         -162.1          69.66          57.49
    0.2855              -17.75          11.94          82.22          36.68         -8.832         -13.56          159.4           31.5         -161.9          69.62          57.49
    0.2991              -17.78          11.95          82.17          36.68         -8.835         -13.55          159.1          31.48         -161.7          69.57          57.49
    0.3127              -17.81          11.97          82.11          36.69         -8.838         -13.53          158.9          31.46         -161.4          69.52          57.48
    0.3263              -17.84          11.98          82.05           36.7         -8.842         -13.51          158.6          31.44         -161.1          69.47          57.47
    0.3399              -17.88           12.0          81.98          36.71         -8.846         -13.49          158.3          31.42         -160.7           69.4          57.47
    0.3535              -17.93          12.01          81.91          36.73         -8.851         -13.47          157.9          31.39         -160.3          69.33          57.46
    0.3671              -17.98          12.03          81.82          36.74         -8.856         -13.45          157.5          31.36         -159.9          69.25          57.45
    0.3807              -18.03          12.05          81.72          36.76         -8.861         -13.42          157.1          31.33         -159.4          69.16          57.44
    0.3943              -18.09          12.08          81.61          36.77         -8.868         -13.39          156.6          31.29         -158.8          69.06          57.43
    0.4079              -18.17          12.11          81.48          36.79         -8.875         -13.35          156.0          31.24         -158.2          68.95          57.42
    0.4215              -18.25          12.14          81.34          36.82         -8.884         -13.31          155.4          31.19         -157.5          68.81           57.4
    0.4351              -18.35          12.18          81.17          36.84         -8.894         -13.26          154.6          31.14         -156.6          68.66          57.39
    0.4486              -18.46          12.22          80.97          36.87         -8.905          -13.2          153.7          31.07         -155.7          68.48          57.37
    0.4622              -18.59          12.27          80.74          36.91         -8.919         -13.13          152.7          30.99         -154.5          68.27          57.35
    0.4758              -18.74          12.33          80.47          36.95         -8.935         -13.05          151.5           30.9         -153.2          68.02          57.32
    0.4894              -18.93           12.4          80.15           37.0         -8.954         -12.96          150.0          30.79         -151.5          67.73          57.29
     0.503              -19.15          12.49          79.77          37.06         -8.976         -12.85          148.3          30.65         -149.6          67.38          57.25
    0.5166              -19.41          12.59           79.3          37.14         -9.003         -12.71          146.2          30.49         -147.3          66.95          57.21
    0.5302              -19.74          12.72          78.73          37.23         -9.037         -12.55          143.6           30.3         -144.4          66.43          57.15
    0.5438              -20.14          12.87          78.03          37.34         -9.078         -12.34          140.4          30.06         -140.9          65.79          57.08
    0.5574              -20.64          13.07          77.15          37.48         -9.129         -12.09          136.5          29.76         -136.6          64.99           57.0
     0.571              -21.27          13.31          76.05          37.65         -9.194         -11.77          131.5          29.38         -131.0          63.99          56.89
    0.5846              -22.07          13.62          74.65          37.87         -9.276         -11.36          125.2          28.89         -124.0          62.71          56.75
    0.5982              -23.09          14.02          72.85          38.16         -9.382         -10.84          117.1          28.28         -115.0          61.07          56.58
    0.6118              -24.41          14.53          70.55          38.52         -9.517         -10.17          106.7          27.49         -103.5          58.97          56.36
    0.6254              -26.09          15.18          67.61          38.99          -9.69         -9.317          93.38          26.47         -88.79          56.28          56.07
     0.639               -28.2           16.0          63.91          39.57         -9.907         -8.243          76.68           25.2         -70.28           52.9          55.71
    0.6526              -30.77           17.0           59.4          40.29         -10.17         -6.933          56.33          23.65         -47.72          48.79          55.27
